<svg xmlns="http://www.w3.org/2000/svg" width="89.641" height="92.533" viewBox="0 0 89.641 92.533">
  <g id="Charging_Battery" data-name="Charging Battery" transform="translate(-1)">
    <path id="Trazado_603958" data-name="Trazado 603958" d="M10,8.229V3.892A2.9,2.9,0,0,1,12.892,1H36.025a2.9,2.9,0,0,1,2.892,2.892V8.229Z" transform="translate(4.012 0.446)" fill="#ad84ff"/>
    <path id="Trazado_603959" data-name="Trazado 603959" d="M38,68.037V62.254H53.9A2.9,2.9,0,0,0,56.8,59.362V29h5.783V59.362A8.685,8.685,0,0,1,53.9,68.037Z" transform="translate(16.496 12.929)" fill="#25ffff"/>
    <rect id="Rectángulo_33928" data-name="Rectángulo 33928" width="52" height="83" rx="5" transform="translate(2.641 8.533)" fill="#25ffff"/>
    <path id="Trazado_603960" data-name="Trazado 603960" d="M8,50H42.7V61.567H8Z" transform="translate(3.121 22.292)" fill="#ad84ff"/>
    <path id="Trazado_603961" data-name="Trazado 603961" d="M8,37H42.7V48.567H8Z" transform="translate(3.121 16.496)" fill="#ad84ff"/>
    <path id="Trazado_603962" data-name="Trazado 603962" d="M8,24H42.7V35.567H8Z" transform="translate(3.121 10.7)" fill="#ad84ff"/>
    <path id="Trazado_603963" data-name="Trazado 603963" d="M8,11H42.7V22.567H8Z" transform="translate(3.121 4.904)" fill="#ad84ff"/>
    <path id="Trazado_603964" data-name="Trazado 603964" d="M55,12.121V4.892a2.892,2.892,0,1,1,5.783,0v7.229Z" transform="translate(24.075 0.892)" fill="#25ffff"/>
    <path id="Trazado_603965" data-name="Trazado 603965" d="M47,12.121V4.892a2.892,2.892,0,0,1,5.783,0v7.229Z" transform="translate(20.508 0.892)" fill="#25ffff"/>
    <path id="Trazado_603966" data-name="Trazado 603966" d="M51.892,30.783A2.9,2.9,0,0,1,49,27.892V25H60.567v2.892a2.9,2.9,0,0,1-2.892,2.892Z" transform="translate(21.4 11.146)" fill="#25ffff"/>
    <path id="Trazado_603967" data-name="Trazado 603967" d="M49.334,32.133a4.344,4.344,0,0,1-4.329-4.066l-1-15.995A2.892,2.892,0,0,1,46.892,9H67.133a2.893,2.893,0,0,1,2.886,3.072l-1,15.995a4.344,4.344,0,0,1-4.329,4.067Z" transform="translate(19.171 4.012)" fill="#ad84ff"/>
    <g id="Grupo_81202" data-name="Grupo 81202" transform="translate(1 0)">
      <path id="Trazado_603968" data-name="Trazado 603968" d="M45.037,60.567V50.446A1.445,1.445,0,0,0,43.592,49H8.892a1.445,1.445,0,0,0-1.446,1.446V60.567a1.446,1.446,0,0,0,0,2.892H45.037a1.446,1.446,0,0,0,0-2.892Zm-34.7,0V51.892H42.146v8.675Z" transform="translate(1.229 21.846)" fill="#252228"/>
      <path id="Trazado_603969" data-name="Trazado 603969" d="M45.037,47.567V37.446A1.445,1.445,0,0,0,43.592,36H8.892a1.445,1.445,0,0,0-1.446,1.446V47.567a1.446,1.446,0,0,0,0,2.892H45.037a1.446,1.446,0,0,0,0-2.892Zm-34.7,0V38.892H42.146v8.675Z" transform="translate(1.229 16.05)" fill="#252228"/>
      <path id="Trazado_603970" data-name="Trazado 603970" d="M45.037,34.567V24.446A1.445,1.445,0,0,0,43.592,23H8.892a1.445,1.445,0,0,0-1.446,1.446V34.567a1.446,1.446,0,0,0,0,2.892H45.037a1.446,1.446,0,0,0,0-2.892Zm-34.7,0V25.892H42.146v8.675Z" transform="translate(1.229 10.254)" fill="#252228"/>
      <path id="Trazado_603971" data-name="Trazado 603971" d="M45.037,21.567V11.446A1.445,1.445,0,0,0,43.592,10H8.892a1.445,1.445,0,0,0-1.446,1.446V21.567a1.446,1.446,0,1,0,0,2.892H45.037a1.446,1.446,0,1,0,0-2.892Zm-34.7,0V12.892H42.146v8.675Z" transform="translate(1.229 4.458)" fill="#252228"/>
      <path id="Trazado_603972" data-name="Trazado 603972" d="M89.465,12.935A4.35,4.35,0,0,0,86.3,11.567V5.783a4.337,4.337,0,1,0-8.675,0v5.783H74.737V5.783a4.337,4.337,0,1,0-8.675,0v5.783a4.338,4.338,0,0,0-4.329,4.609l1,15.994a5.793,5.793,0,0,0,5.772,5.423h.449v1.446a4.33,4.33,0,0,0,2.892,4.071V72.292A1.447,1.447,0,0,1,70.4,73.737H55.942V15.9a8.684,8.684,0,0,0-8.675-8.675H44.375V4.337A4.342,4.342,0,0,0,40.037,0H16.9a4.342,4.342,0,0,0-4.337,4.337V7.229H9.675A8.684,8.684,0,0,0,1,15.9V83.858a8.684,8.684,0,0,0,8.675,8.675H47.267a8.684,8.684,0,0,0,8.675-8.675V82.412H70.4A10.133,10.133,0,0,0,80.521,72.292V43.108a4.33,4.33,0,0,0,2.892-4.071V37.592h.449a5.793,5.793,0,0,0,5.772-5.423l1-15.994a4.348,4.348,0,0,0-1.168-3.24ZM80.521,5.783a1.446,1.446,0,0,1,2.892,0v5.783H80.521Zm-11.567,0a1.446,1.446,0,0,1,2.892,0v5.783H68.954Zm-53.5-1.446A1.447,1.447,0,0,1,16.9,2.892H40.037a1.447,1.447,0,0,1,1.446,1.446V7.229H15.458ZM53.05,83.858a5.789,5.789,0,0,1-5.783,5.783H9.675a5.789,5.789,0,0,1-5.783-5.783V15.9a5.789,5.789,0,0,1,5.783-5.783H47.267A5.789,5.789,0,0,1,53.05,15.9ZM70.4,79.521H55.942V76.629H70.4a4.342,4.342,0,0,0,4.337-4.337V43.375h2.892V72.292A7.238,7.238,0,0,1,70.4,79.521ZM80.521,39.037a1.447,1.447,0,0,1-1.446,1.446H73.292a1.447,1.447,0,0,1-1.446-1.446V37.592h8.675Zm6.227-7.049A2.9,2.9,0,0,1,83.861,34.7H68.505a2.9,2.9,0,0,1-2.886-2.712l-1-15.994a1.445,1.445,0,0,1,1.443-1.536H86.3a1.445,1.445,0,0,1,1.443,1.536Z" transform="translate(-1 0)" fill="#252228"/>
      <path id="Trazado_603973" data-name="Trazado 603973" d="M57.229,17.783H53.785l1.845-3.691A1.446,1.446,0,1,0,53.044,12.8l-2.892,5.783a1.446,1.446,0,0,0,1.293,2.093H54.89l-1.845,3.691a1.446,1.446,0,1,0,2.587,1.293l2.892-5.783a1.446,1.446,0,0,0-1.293-2.093Z" transform="translate(20.846 5.35)" fill="#252228"/>
    </g>
  </g>
</svg>
