<svg xmlns="http://www.w3.org/2000/svg" width="92.156" height="92.121" viewBox="0 0 92.156 92.121">
  <g id="_14-geothermal-energy" data-name="14-geothermal-energy" transform="translate(-16 -16)">
    <path id="Trazado_603942" data-name="Trazado 603942" d="M16,384h92.121v21.495H16Z" transform="translate(0 -297.374)" fill="#754c29"/>
    <path id="Trazado_603943" data-name="Trazado 603943" d="M113.23,103.255v41.474H24.179V104.79L27.25,87.9H41.068l3.071,16.889,27.6.019.034,12.264,13.818-13.818v13.818l13.818-13.818v13.818Z" transform="translate(-6.609 -58.102)" fill="#7fc44f"/>
    <path id="Trazado_603944" data-name="Trazado 603944" d="M24.179,104.79,27.25,87.9H41.068l3.071,16.889Z" transform="translate(-6.609 -58.102)" fill="#ffc43b"/>
    <path id="Trazado_603945" data-name="Trazado 603945" d="M152.179,104.889,155.25,88h13.818l3.071,16.889Z" transform="translate(-110.044 -58.182)" fill="#ffc43b"/>
    <path id="Trazado_603946" data-name="Trazado 603946" d="M137.695,299.487a6.225,6.225,0,0,1-6.267,5.967H70.27A6.225,6.225,0,0,1,64,299.487a6.141,6.141,0,0,1,6.139-6.315h50.667v-23.03H91.637V264h32.242a3.071,3.071,0,0,1,3.071,3.071v26.1h4.606a6.141,6.141,0,0,1,6.139,6.315Z" transform="translate(-38.788 -200.404)" fill="#f87b1f"/>
    <circle id="Elipse_4763" data-name="Elipse 4763" cx="13.77" cy="13.77" r="13.77" transform="translate(27.652 52.99)" fill="#ffc43b"/>
    <path id="Trazado_603947" data-name="Trazado 603947" d="M117.212,232,108,242.747h4.606v7.677l9.212-10.747h-4.606Z" transform="translate(-74.343 -174.545)" fill="#fff"/>
    <path id="Trazado_603948" data-name="Trazado 603948" d="M107.354,43.734a1.535,1.535,0,0,0-1.673.333l-11.2,11.2V45.153a1.535,1.535,0,0,0-2.621-1.086l-11.2,11.2V45.153a1.535,1.535,0,0,0-2.621-1.086L66.836,55.275,66.812,46.7a1.535,1.535,0,0,0-1.535-1.531H63.521L60.68,29.544a1.535,1.535,0,0,0-1.51-1.261h-4.64V25.212a4.611,4.611,0,0,1,4.606-4.606H71.418V17.535H59.135a7.685,7.685,0,0,0-7.677,7.677v3.071H45.352a1.535,1.535,0,0,0-1.511,1.261L41,45.155l-2.046,0L36.115,29.524A1.535,1.535,0,0,0,34.6,28.264H31.5V26.747a1.537,1.537,0,0,1,1.535-1.535H37.64V22.141H33.034a4.611,4.611,0,0,0-4.606,4.606v1.516H25.358V23.677a4.611,4.611,0,0,1,4.606-4.606H42.247V16H29.964a7.685,7.685,0,0,0-7.677,7.677v4.587h-1.5a1.535,1.535,0,0,0-1.511,1.261L16.2,46.413c0,.008,0,.016,0,.025q-.011.063-.016.126c0,.021,0,.042,0,.063s0,.04,0,.06V86.626a1.535,1.535,0,0,0,1.535,1.535H80.63v3.071h-49a7.794,7.794,0,0,0-7.8,7.462,7.677,7.677,0,0,0,7.674,7.892H92.785a7.794,7.794,0,0,0,7.8-7.462,7.677,7.677,0,0,0-7.674-7.892H89.842V88.162h16.923a1.535,1.535,0,0,0,1.535-1.535V45.153a1.535,1.535,0,0,0-.948-1.418ZM46.633,31.354H57.888L60.4,45.168l-16.277-.011Zm-24.566-.019H33.322l2.512,13.818H19.555ZM92.913,94.3a4.606,4.606,0,0,1,4.6,4.737,4.7,4.7,0,0,1-4.732,4.476H31.5a4.606,4.606,0,0,1-4.6-4.737A4.7,4.7,0,0,1,31.627,94.3H82.166A1.535,1.535,0,0,0,83.7,92.768V69.737A1.535,1.535,0,0,0,82.166,68.2H56.756q.076-.758.077-1.535a14.786,14.786,0,0,0-.077-1.535H85.236a1.537,1.537,0,0,1,1.535,1.535v26.1A1.535,1.535,0,0,0,88.307,94.3Zm12.317-9.212H89.842V66.667a4.611,4.611,0,0,0-4.606-4.606H56.126a15.354,15.354,0,1,0,0,9.212h24.5V85.091H19.251V48.223H37.679l4.393,0a1.53,1.53,0,0,0,.21.016h19.96l.037,0h1.468l.03,10.733A1.535,1.535,0,0,0,66.4,60.056l11.2-11.2V58.971a1.535,1.535,0,0,0,2.621,1.086l11.2-11.2V58.971a1.535,1.535,0,0,0,2.621,1.086l11.2-11.2ZM53.762,66.667A12.283,12.283,0,1,1,41.479,54.384,12.283,12.283,0,0,1,53.762,66.667Z" transform="translate(-0.145 0)"/>
    <path id="Trazado_603949" data-name="Trazado 603949" d="M320,24h3.071v3.071H320Z" transform="translate(-245.657 -6.465)"/>
    <path id="Trazado_603950" data-name="Trazado 603950" d="M168,16h3.071v3.071H168Z" transform="translate(-122.828)"/>
    <path id="Trazado_603951" data-name="Trazado 603951" d="M264,56h16.889v3.071H264Z" transform="translate(-200.404 -32.323)"/>
    <path id="Trazado_603952" data-name="Trazado 603952" d="M368,56h3.071v3.071H368Z" transform="translate(-284.444 -32.323)"/>
    <path id="Trazado_603953" data-name="Trazado 603953" d="M115.353,231.676h-3.071v-6.141a1.535,1.535,0,0,0-2.7-1l-9.212,10.747a1.535,1.535,0,0,0,1.166,2.535h3.071v6.141a1.535,1.535,0,0,0,2.7,1l9.212-10.747a1.535,1.535,0,0,0-1.166-2.535Zm-7.677,8.132v-3.526a1.535,1.535,0,0,0-1.535-1.535h-1.268l4.339-5.062v3.526a1.535,1.535,0,0,0,1.535,1.535h1.268Z" transform="translate(-67.878 -168.08)"/>
    <path id="Trazado_603954" data-name="Trazado 603954" d="M96,440h15.354v3.071H96Z" transform="translate(-64.646 -342.626)"/>
    <path id="Trazado_603955" data-name="Trazado 603955" d="M192,440h3.071v3.071H192Z" transform="translate(-142.222 -342.626)"/>
    <path id="Trazado_603956" data-name="Trazado 603956" d="M244,440h15.354v3.071H244Z" transform="translate(-184.242 -342.626)"/>
    <path id="Trazado_603957" data-name="Trazado 603957" d="M340,440h3.071v3.071H340Z" transform="translate(-261.818 -342.626)"/>
  </g>
</svg>
