<svg xmlns="http://www.w3.org/2000/svg" width="295" height="117" viewBox="0 0 295 117">
  <g id="Grupo_985294" data-name="Grupo 985294" transform="translate(-180 -2211)">
    <g id="Grupo_89460" data-name="Grupo 89460" transform="translate(-945 27)">
      <rect id="Rect치ngulo_35200" data-name="Rect치ngulo 35200" width="295" height="86" transform="translate(1125 2184)" fill="#dbe6f5"/>
      <g id="Grupo_89459" data-name="Grupo 89459" transform="translate(1195.947 2193)">
        <rect id="Rect치ngulo_33945" data-name="Rect치ngulo 33945" width="154" height="108" transform="translate(0.053)" fill="none"/>
        <g id="energia-solar" transform="translate(23.208 4.152)">
          <g id="Grupo_89624" data-name="Grupo 89624" transform="translate(6.465 9.555)">
            <g id="Grupo_89623" data-name="Grupo 89623" transform="translate(4.586 61.884)">
              <path id="Trazado_613609" data-name="Trazado 613609" d="M34.822,91.5h4.612v8.36H34.822Z" transform="translate(-18.006 -91.5)" fill="#ff9800"/>
              <path id="Trazado_613610" data-name="Trazado 613610" d="M12.947,91.5h4.612v8.36H12.947Z" transform="translate(-12.947 -91.5)" fill="#ff9800"/>
            </g>
            <path id="Trazado_613611" data-name="Trazado 613611" d="M39.5,112.5H49.715v4.612H39.5Z" transform="translate(-14.501 -34.473)" fill="#ff9800"/>
            <path id="Trazado_613612" data-name="Trazado 613612" d="M0,0H57.079V6.919H0Z" transform="translate(72.365 27.867) rotate(90)" fill="#eaeaf0"/>
            <path id="Trazado_613613" data-name="Trazado 613613" d="M84.146,109.5h19.172v6.15H84.146Z" transform="translate(-24.826 -33.779)" fill="#0e8bce"/>
            <path id="Trazado_613614" data-name="Trazado 613614" d="M90.616,50.1h9.225V71.687H90.616Z" transform="translate(-26.322 -20.041)" fill="#0e8bce"/>
            <path id="Trazado_613615" data-name="Trazado 613615" d="M99.618,24.19l-4.6,7.687-1.491,2.5-3.8,6.35-1.5,2.491-3.8,6.342-1.491,2.5-3.8,6.35L77.648,60.9l-4.489,7.5H26.88l4.6-7.7,1.491-2.491,3.805-6.342,1.491-2.5,3.8-6.35,1.5-2.491,3.8-6.342,1.491-2.5,4.489-7.5Z" transform="translate(-11.583 -14.05)" fill="#3ba9fd"/>
            <circle id="Elipse_4801" data-name="Elipse 4801" cx="9.225" cy="9.225" r="9.225" transform="translate(3.09)" fill="#fdd82e"/>
            <path id="Trazado_613616" data-name="Trazado 613616" d="M6.981,97.5h30.6v18.45H6.981Z" transform="translate(-6.981 -31.004)" fill="#fdd82e"/>
            <path id="Trazado_613617" data-name="Trazado 613617" d="M76.712,115.5h30.6v4.612h-30.6Z" transform="translate(-23.107 -35.167)" fill="#eaeaf0"/>
          </g>
          <g id="Grupo_89625" data-name="Grupo 89625" transform="translate(4.75 4.75)">
            <path id="Trazado_613618" data-name="Trazado 613618" d="M80.29,66.612a1.341,1.341,0,0,0,1.153-1.325V48.4L95.764,24.478a1.345,1.345,0,0,0-1.153-2.036H58.481a1.345,1.345,0,1,0,0,2.691h2.787l-3.681,6.15H45.42l3.682-6.15h3.1a1.345,1.345,0,0,0,0-2.691H48.339a1.346,1.346,0,0,0-1.153.655L20.724,67.3a1.345,1.345,0,0,0,1.153,2.036H68.149a1.345,1.345,0,0,0,1.153-.654l1.248-2.088c.042.01.085.016.128.022V83.309H50.409a1.345,1.345,0,0,0-1.345,1.345v8.072H43.137V91.673a1.345,1.345,0,0,0-1.345-1.345H38.523V80.142A1.345,1.345,0,0,0,37.177,78.8H33.935V75.53a1.345,1.345,0,0,0-1.345-1.345H27.977a1.345,1.345,0,0,0-1.345,1.345V78.8H17.122V75.53a1.345,1.345,0,0,0-1.345-1.345H11.165A1.345,1.345,0,0,0,9.819,75.53V78.8H6.575A1.345,1.345,0,0,0,5.23,80.142v18.45a1.345,1.345,0,0,0,1.345,1.345h30.6a1.345,1.345,0,0,0,1.345-1.345v-.961h3.269a1.345,1.345,0,0,0,1.345-1.345v-.869h7.272a1.345,1.345,0,0,0,1.345-1.345V86H70.68v2.022H65.9a1.345,1.345,0,0,0-1.345,1.345v3.267h-4.37a1.345,1.345,0,0,0-1.345,1.345v4.612a1.345,1.345,0,0,0,1.345,1.345H65.9a1.345,1.345,0,1,0,0-2.691h-4.37V95.325H89.438v1.922H72.7a1.345,1.345,0,0,0,0,2.691H90.783a1.345,1.345,0,0,0,1.345-1.345V93.979a1.345,1.345,0,0,0-1.345-1.345h-4.37V89.367a1.345,1.345,0,0,0-1.345-1.345H80.29v-4.9a1.345,1.345,0,1,0-2.691,0v4.9H73.371V66.635H77.6v3.052a1.345,1.345,0,0,0,2.691,0ZM29.322,76.875h1.922V78.8H29.322Zm-16.812,0h1.922V78.8H12.51ZM35.832,97.246H7.921V81.487H35.832Zm4.612-2.306H38.523V93.018h1.922Zm43.276-2.306H67.244V90.712H83.725ZM78.752,63.945H72.218v-.133L78.752,52.9Zm-39.2,2.7,3.681-6.15H55.4l-3.681,6.15Zm-6.327-14.99H45.39L41.708,57.8H29.542Zm5.292-8.841H50.682L47,48.964H34.835Zm44.748-2.691H70.729l3.682-6.15H86.945ZM81.65,42.814l-3.681,6.15H65.438l3.681-6.15ZM62.3,48.964H50.136l3.681-6.15H65.983ZM44.84,57.8l3.682-6.15H60.691L57.008,57.8Zm18.982-6.15H76.361L72.678,57.8H60.148Zm24.73-20.372H76.022l3.681-6.15H92.238ZM64.4,25.133H76.568l-3.682,6.15H60.721Zm-5.293,8.841H71.275l-3.681,6.15H55.429Zm-3.136,0-3.681,6.15H40.128l3.681-6.15ZM27.929,60.495H40.1l-3.681,6.15H24.25Zm39.454,6.15H54.851l3.682-6.15h12.53Z" transform="translate(-4.861 -8.841)" fill="#051720"/>
            <path id="Trazado_613619" data-name="Trazado 613619" d="M100.715,88.125A1.345,1.345,0,0,0,99.37,89.47v3.363a1.345,1.345,0,0,0,2.691,0V89.47A1.345,1.345,0,0,0,100.715,88.125Z" transform="translate(-26.632 -24.031)" fill="#051720"/>
            <path id="Trazado_613620" data-name="Trazado 613620" d="M6.1,20.125H8.3a10.494,10.494,0,0,0,2.119,5.1L8.855,26.8A1.348,1.348,0,1,0,10.762,28.7l1.569-1.569a10.494,10.494,0,0,0,5.1,2.119v2.209a1.345,1.345,0,0,0,2.691,0V29.254a10.494,10.494,0,0,0,5.1-2.119L26.8,28.7A1.348,1.348,0,1,0,28.7,26.8l-1.569-1.569a10.494,10.494,0,0,0,2.119-5.1h2.209a1.345,1.345,0,0,0,0-2.691H29.254a10.494,10.494,0,0,0-2.119-5.1L28.7,10.762A1.348,1.348,0,1,0,26.8,8.855l-1.569,1.568a10.5,10.5,0,0,0-5.1-2.119V6.1a1.345,1.345,0,1,0-2.691,0V8.3a10.5,10.5,0,0,0-5.1,2.119L10.762,8.855a1.348,1.348,0,1,0-1.907,1.907l1.569,1.569a10.494,10.494,0,0,0-2.119,5.1H6.1a1.345,1.345,0,1,0,0,2.691ZM18.779,10.9a7.88,7.88,0,1,1-7.88,7.88,7.88,7.88,0,0,1,7.88-7.88Z" transform="translate(-4.75 -4.75)" fill="#051720"/>
            <path id="Trazado_613621" data-name="Trazado 613621" d="M12.575,106a1.345,1.345,0,0,0-1.345,1.345v4.8a1.345,1.345,0,1,0,2.691,0v-4.8A1.345,1.345,0,0,0,12.575,106Z" transform="translate(-6.249 -28.165)" fill="#051720"/>
            <path id="Trazado_613622" data-name="Trazado 613622" d="M27.621,106.334H26.247l1.013-2.921a1.345,1.345,0,1,0-2.542-.881l-1.632,4.709a1.345,1.345,0,0,0,1.271,1.786h1.375l-1.013,2.921a1.345,1.345,0,0,0,.83,1.711,1.319,1.319,0,0,0,.44.077,1.346,1.346,0,0,0,1.271-.9l1.632-4.709a1.345,1.345,0,0,0-1.271-1.786Z" transform="translate(-8.973 -27.154)" fill="#051720"/>
          </g>
        </g>
      </g>
    </g>
  </g>
</svg>
