<svg id="Grupo_81136" data-name="Grupo 81136" xmlns="http://www.w3.org/2000/svg" xmlns:xlink="http://www.w3.org/1999/xlink" width="301.112" height="248.833" viewBox="0 0 301.112 248.833">
  <defs>
    <linearGradient id="linear-gradient" y1="0.5" x2="1" y2="0.5" gradientUnits="objectBoundingBox">
      <stop offset="0" stop-color="#dfebfd"/>
      <stop offset="1" stop-color="#c5dafc"/>
    </linearGradient>
  </defs>
  <g id="Grupo_81092" data-name="Grupo 81092" transform="translate(0 57.506)">
    <g id="Grupo_81090" data-name="Grupo 81090" transform="translate(5.207 16.256)" style="mix-blend-mode: multiply;isolation: isolate">
      <path id="Trazado_603816" data-name="Trazado 603816" d="M886.235,505.706l77.145,51.776a13.832,13.832,0,0,0,12.473,0l195.935-113.123c3.43-1.98,3.43-5.221,0-7.2l-77.144-51.775a13.832,13.832,0,0,0-12.473,0L886.235,498.506C882.805,500.486,882.805,503.727,886.235,505.706Z" transform="translate(-883.662 -383.897)" fill="#094372"/>
    </g>
    <g id="Grupo_81091" data-name="Grupo 81091">
      <path id="Trazado_603817" data-name="Trazado 603817" d="M877.691,489.908s21.437,7.123,22.2,7.123c.119,0,.136.47.079,1.259l181.281-104.662a14.188,14.188,0,0,1,12.79,0l65.141,44.845c.672-2.351,1.34-4.662,1.393-4.74.108-.163,18.216-4.877,18.216-4.877v9.269c.087,1.4-.78,2.819-2.623,3.883l-200.919,116a14.188,14.188,0,0,1-12.79,0l-82.128-54.653c-2-1.153-2.857-2.723-2.586-4.236l-.051-.03Z" transform="translate(-877.69 -368.693)" fill="#324fae"/>
      <path id="Trazado_603818" data-name="Trazado 603818" d="M880.328,490.159l82.128,54.653a14.188,14.188,0,0,0,12.79,0l200.919-116c3.517-2.031,3.517-5.354,0-7.385l-82.127-54.653a14.189,14.189,0,0,0-12.79,0l-200.919,116C876.811,484.805,876.811,488.129,880.328,490.159Z" transform="translate(-877.69 -365.251)" fill="url(#linear-gradient)"/>
    </g>
  </g>
  <path id="Trazado_603819" data-name="Trazado 603819" d="M1111.217,440.916a3.129,3.129,0,0,1-1.548-.389l-29.085-16.792a1.8,1.8,0,0,1,0-3.225l29.085-16.793a3.284,3.284,0,0,1,3.1,0l29.085,16.793a1.8,1.8,0,0,1,0,3.225l-29.084,16.792A3.132,3.132,0,0,1,1111.217,440.916Zm-28.447-18.793,28.143,16.249a.878.878,0,0,0,.606,0l28.143-16.249-28.142-16.248a.885.885,0,0,0-.607,0Zm-.942-.543h0Z" transform="translate(-903.564 -312.625)" fill="#fff"/>
  <path id="Trazado_603820" data-name="Trazado 603820" d="M1040.132,482.07a3.134,3.134,0,0,1-1.547-.388L1009.5,464.89a1.8,1.8,0,0,1,0-3.225l29.085-16.792a3.281,3.281,0,0,1,3.1,0l29.085,16.792a1.8,1.8,0,0,1,0,3.225l-29.084,16.793A3.14,3.14,0,0,1,1040.132,482.07Zm-28.446-18.793,28.142,16.248a.88.88,0,0,0,.607,0l28.143-16.248-28.143-16.249a.89.89,0,0,0-.607,0Z" transform="translate(-894.454 -317.899)" fill="#fff"/>
  <path id="Trazado_603821" data-name="Trazado 603821" d="M969.048,523.224a3.125,3.125,0,0,1-1.549-.389l-29.084-16.792a1.8,1.8,0,0,1,0-3.225L967.5,486.027a3.281,3.281,0,0,1,3.1,0l29.085,16.793a1.8,1.8,0,0,1,0,3.225L970.6,522.836A3.128,3.128,0,0,1,969.048,523.224ZM940.6,504.431l28.143,16.248a.873.873,0,0,0,.606,0l28.143-16.248-28.143-16.249a.885.885,0,0,0-.607,0Z" transform="translate(-885.344 -323.174)" fill="#fff"/>
  <g id="Grupo_81093" data-name="Grupo 81093" transform="translate(49.145 188.198)">
    <ellipse id="Elipse_4711" data-name="Elipse 4711" cx="3.958" cy="2.285" rx="3.958" ry="2.285" transform="translate(16.703 9.643)" fill="#fff"/>
    <path id="Trazado_603822" data-name="Trazado 603822" d="M944.8,521.355c-1.546.892-1.546,2.339,0,3.231a6.183,6.183,0,0,0,5.6,0c1.546-.892,1.546-2.339,0-3.231A6.183,6.183,0,0,0,944.8,521.355Z" transform="translate(-935.287 -515.863)" fill="#fff"/>
    <path id="Trazado_603823" data-name="Trazado 603823" d="M935.219,515.824c-1.546.893-1.546,2.339,0,3.232a6.189,6.189,0,0,0,5.6,0c1.546-.893,1.546-2.339,0-3.232A6.189,6.189,0,0,0,935.219,515.824Z" transform="translate(-934.059 -515.155)" fill="#fff"/>
  </g>
  <g id="Grupo_81094" data-name="Grupo 81094" transform="translate(112.08 151.584)">
    <path id="Trazado_603824" data-name="Trazado 603824" d="M1026.564,484.889c-1.546.893-1.546,2.339,0,3.232a6.189,6.189,0,0,0,5.6,0c1.546-.893,1.546-2.339,0-3.232A6.184,6.184,0,0,0,1026.564,484.889Z" transform="translate(-1008.701 -474.576)" fill="#fff"/>
    <path id="Trazado_603825" data-name="Trazado 603825" d="M1016.985,479.359c-1.546.892-1.546,2.338,0,3.231a6.183,6.183,0,0,0,5.6,0c1.546-.893,1.546-2.339,0-3.231A6.183,6.183,0,0,0,1016.985,479.359Z" transform="translate(-1007.474 -473.867)" fill="#fff"/>
    <path id="Trazado_603826" data-name="Trazado 603826" d="M1007.406,473.828c-1.546.892-1.546,2.339,0,3.232a6.187,6.187,0,0,0,5.6,0c1.546-.893,1.546-2.34,0-3.232A6.182,6.182,0,0,0,1007.406,473.828Z" transform="translate(-1006.246 -473.158)" fill="#fff"/>
  </g>
  <g id="Grupo_81095" data-name="Grupo 81095" transform="translate(172.278 114.46)">
    <path id="Trazado_603827" data-name="Trazado 603827" d="M1095.61,442.308c-1.546.893-1.546,2.339,0,3.232a6.189,6.189,0,0,0,5.6,0c1.546-.893,1.546-2.339,0-3.232A6.183,6.183,0,0,0,1095.61,442.308Z" transform="translate(-1077.747 -431.995)" fill="#fff"/>
    <path id="Trazado_603828" data-name="Trazado 603828" d="M1086.031,436.778c-1.546.892-1.546,2.339,0,3.231a6.183,6.183,0,0,0,5.6,0c1.546-.892,1.546-2.339,0-3.231A6.183,6.183,0,0,0,1086.031,436.778Z" transform="translate(-1076.52 -431.286)" fill="#fff"/>
    <path id="Trazado_603829" data-name="Trazado 603829" d="M1076.452,431.247c-1.546.893-1.546,2.339,0,3.232a6.189,6.189,0,0,0,5.6,0c1.546-.893,1.546-2.339,0-3.232A6.184,6.184,0,0,0,1076.452,431.247Z" transform="translate(-1075.292 -430.577)" fill="#fff"/>
  </g>
  <g id="Grupo_81098" data-name="Grupo 81098" transform="translate(184.587)">
    <g id="Grupo_81096" data-name="Grupo 81096">
      <path id="Trazado_603830" data-name="Trazado 603830" d="M1089.411,312.987s2.356.782,2.439.782c.013,0,.016.051.009.139l19.916-11.5a1.559,1.559,0,0,1,1.405,0l20.207,11.667c.074-.259.147-.513.153-.521s2-.535,2-.535V407.9a.479.479,0,0,1-.288.426L1113.18,421.07a1.559,1.559,0,0,1-1.405,0L1089.7,408.325a.462.462,0,0,1-.284-.465l-.006,0Z" transform="translate(-1089.411 -299.67)" fill="#083961"/>
      <path id="Trazado_603831" data-name="Trazado 603831" d="M1089.7,313.015l22.073,12.744a1.559,1.559,0,0,0,1.405,0l22.073-12.744a.429.429,0,0,0,0-.812l-22.073-12.744a1.559,1.559,0,0,0-1.405,0L1089.7,312.2A.429.429,0,0,0,1089.7,313.015Z" transform="translate(-1089.411 -299.292)" fill="#ad84ff"/>
    </g>
    <g id="Grupo_81097" data-name="Grupo 81097" transform="translate(30.733 23.579)">
      <path id="Trazado_603832" data-name="Trazado 603832" d="M1127.917,356.79l4.3-2.482a6.777,6.777,0,0,0,3.255-5.133v-4.3c0-1.79-1.465-2.409-3.255-1.375l-4.3,2.482a6.774,6.774,0,0,0-3.255,5.133v4.3C1124.662,357.2,1126.126,357.824,1127.917,356.79Z" transform="translate(-1124.662 -328.472)" fill="#fff"/>
      <path id="Trazado_603833" data-name="Trazado 603833" d="M1127.917,340.13l4.3-2.482a6.778,6.778,0,0,0,3.255-5.134v-4.3c0-1.79-1.465-2.409-3.255-1.375l-4.3,2.482a6.772,6.772,0,0,0-3.255,5.133v4.3C1124.662,340.544,1126.126,341.164,1127.917,340.13Z" transform="translate(-1124.662 -326.337)" fill="#fff"/>
      <path id="Trazado_603834" data-name="Trazado 603834" d="M1127.917,373.479l4.3-2.483a6.775,6.775,0,0,0,3.255-5.133v-4.3c0-1.79-1.465-2.409-3.255-1.376l-4.3,2.483a6.772,6.772,0,0,0-3.255,5.133v4.3C1124.662,373.893,1126.126,374.512,1127.917,373.479Z" transform="translate(-1124.662 -330.611)" fill="#fff"/>
      <path id="Trazado_603835" data-name="Trazado 603835" d="M1127.917,390.167l4.3-2.482a6.776,6.776,0,0,0,3.255-5.133v-4.3c0-1.79-1.465-2.409-3.255-1.375l-4.3,2.482a6.774,6.774,0,0,0-3.255,5.133v4.3C1124.662,390.582,1126.126,391.2,1127.917,390.167Z" transform="translate(-1124.662 -332.75)" fill="#fff"/>
      <path id="Trazado_603836" data-name="Trazado 603836" d="M1127.917,406.856l4.3-2.483a6.775,6.775,0,0,0,3.255-5.133v-4.3c0-1.79-1.465-2.409-3.255-1.376l-4.3,2.483a6.772,6.772,0,0,0-3.255,5.133v4.3C1124.662,407.27,1126.126,407.889,1127.917,406.856Z" transform="translate(-1124.662 -334.889)" fill="#fff"/>
      <path id="Trazado_603837" data-name="Trazado 603837" d="M1127.917,423.544l4.3-2.482a6.775,6.775,0,0,0,3.255-5.133v-4.3c0-1.791-1.465-2.409-3.255-1.376l-4.3,2.483a6.771,6.771,0,0,0-3.255,5.133v4.3C1124.662,423.959,1126.126,424.578,1127.917,423.544Z" transform="translate(-1124.662 -337.028)" fill="#25ffff"/>
    </g>
  </g>
  <g id="Grupo_81101" data-name="Grupo 81101" transform="translate(122.613 59.531)">
    <g id="Grupo_81099" data-name="Grupo 81099">
      <path id="Trazado_603838" data-name="Trazado 603838" d="M1018.327,381.269s2.355.782,2.439.782c.013,0,.015.051.009.139l19.916-11.5a1.558,1.558,0,0,1,1.405,0l20.208,11.667c.073-.259.147-.513.153-.521s2-.535,2-.535V452.53a.481.481,0,0,1-.289.427L1042.1,465.7a1.558,1.558,0,0,1-1.405,0l-22.073-12.744a.464.464,0,0,1-.284-.466l-.005,0Z" transform="translate(-1018.327 -367.952)" fill="#083961"/>
      <path id="Trazado_603839" data-name="Trazado 603839" d="M1018.616,381.3l22.073,12.744a1.558,1.558,0,0,0,1.405,0l22.073-12.744a.429.429,0,0,0,0-.812L1042.1,367.741a1.558,1.558,0,0,0-1.405,0l-22.073,12.744A.429.429,0,0,0,1018.616,381.3Z" transform="translate(-1018.327 -367.574)" fill="#ad84ff"/>
    </g>
    <g id="Grupo_81100" data-name="Grupo 81100" transform="translate(31.032 28.884)">
      <path id="Trazado_603840" data-name="Trazado 603840" d="M1057.175,414.5l4.3-2.483a6.775,6.775,0,0,0,3.255-5.133v-4.3c0-1.79-1.465-2.409-3.255-1.376l-4.3,2.483a6.775,6.775,0,0,0-3.255,5.133v4.3C1053.92,414.911,1055.385,415.53,1057.175,414.5Z" transform="translate(-1053.92 -400.704)" fill="#fff"/>
      <path id="Trazado_603841" data-name="Trazado 603841" d="M1057.175,431.185l4.3-2.483a6.775,6.775,0,0,0,3.255-5.133v-4.3c0-1.791-1.465-2.41-3.255-1.376l-4.3,2.482a6.776,6.776,0,0,0-3.255,5.134v4.3C1053.92,431.6,1055.385,432.219,1057.175,431.185Z" transform="translate(-1053.92 -402.843)" fill="#fff"/>
      <path id="Trazado_603842" data-name="Trazado 603842" d="M1057.175,447.874l4.3-2.483a6.775,6.775,0,0,0,3.255-5.133v-4.3c0-1.79-1.465-2.409-3.255-1.376l-4.3,2.483a6.775,6.775,0,0,0-3.255,5.133v4.3C1053.92,448.289,1055.385,448.907,1057.175,447.874Z" transform="translate(-1053.92 -404.982)" fill="#fff"/>
      <path id="Trazado_603843" data-name="Trazado 603843" d="M1057.175,464.563l4.3-2.483a6.775,6.775,0,0,0,3.255-5.133v-4.3c0-1.79-1.465-2.409-3.255-1.376l-4.3,2.483a6.775,6.775,0,0,0-3.255,5.133v4.3C1053.92,464.977,1055.385,465.6,1057.175,464.563Z" transform="translate(-1053.92 -407.12)" fill="#25ffff"/>
    </g>
  </g>
  <g id="Grupo_81104" data-name="Grupo 81104" transform="translate(60.638 109.991)">
    <g id="Grupo_81102" data-name="Grupo 81102">
      <path id="Trazado_603844" data-name="Trazado 603844" d="M947.242,439.146s2.355.782,2.439.782c.013,0,.015.051.009.139l19.916-11.5a1.559,1.559,0,0,1,1.405,0l20.208,11.667c.074-.259.147-.513.153-.521s2-.535,2-.535v56.649a.48.48,0,0,1-.288.426L971.01,509a1.558,1.558,0,0,1-1.405,0l-22.073-12.744a.464.464,0,0,1-.284-.466l-.005,0Z" transform="translate(-947.242 -425.829)" fill="#083961"/>
      <path id="Trazado_603845" data-name="Trazado 603845" d="M947.531,439.174,969.6,451.918a1.559,1.559,0,0,0,1.405,0l22.074-12.744a.429.429,0,0,0,0-.812L971.01,425.618a1.559,1.559,0,0,0-1.405,0l-22.073,12.744A.429.429,0,0,0,947.531,439.174Z" transform="translate(-947.242 -425.451)" fill="#ad84ff"/>
    </g>
    <g id="Grupo_81103" data-name="Grupo 81103" transform="translate(30.839 29.301)">
      <path id="Trazado_603846" data-name="Trazado 603846" d="M985.869,472.852l4.3-2.483a6.775,6.775,0,0,0,3.255-5.133v-4.3c0-1.79-1.465-2.409-3.255-1.376l-4.3,2.483a6.775,6.775,0,0,0-3.255,5.133v4.3C982.614,473.266,984.079,473.885,985.869,472.852Z" transform="translate(-982.614 -459.059)" fill="#fff"/>
      <path id="Trazado_603847" data-name="Trazado 603847" d="M985.869,489.54l4.3-2.482a6.776,6.776,0,0,0,3.255-5.133v-4.3c0-1.79-1.465-2.409-3.255-1.375l-4.3,2.482a6.777,6.777,0,0,0-3.255,5.133v4.3C982.614,489.955,984.079,490.574,985.869,489.54Z" transform="translate(-982.614 -461.198)" fill="#fff"/>
      <path id="Trazado_603848" data-name="Trazado 603848" d="M985.869,506.229l4.3-2.483a6.775,6.775,0,0,0,3.255-5.133v-4.3c0-1.79-1.465-2.409-3.255-1.376l-4.3,2.483a6.775,6.775,0,0,0-3.255,5.133v4.3C982.614,506.643,984.079,507.262,985.869,506.229Z" transform="translate(-982.614 -463.337)" fill="#25ffff"/>
    </g>
  </g>
</svg>
