<svg xmlns="http://www.w3.org/2000/svg" width="70.635" height="81.226" viewBox="0 0 70.635 81.226">
  <g id="documentos" transform="translate(-33.378)">
    <path id="Trazado_613294" data-name="Trazado 613294" d="M430.09,132.939h-.011l-.486.286v8.417h7.375l.4-.343V140.22A7.3,7.3,0,0,0,430.09,132.939Z" transform="translate(-333.358 -111.849)" fill="#ffa90f"/>
    <path id="Trazado_613295" data-name="Trazado 613295" d="M164.654,1.172,164.133,0H128.4a2.7,2.7,0,0,0-2.7,2.7V7.361l1.123.92h29.959l9.836,9.561V30.017h7l.779-.568V10.261l-1.215-.537Z" transform="translate(-77.673 0)" fill="#62ddfc"/>
    <g id="Grupo_89440" data-name="Grupo 89440" transform="translate(48.024 0)">
      <path id="Trazado_613296" data-name="Trazado 613296" d="M134.07,2.7a2.7,2.7,0,0,1,2.7-2.7H128.4a2.7,2.7,0,0,0-2.7,2.7V7.361l1.123.92h8.374l-1.123-.92Z" transform="translate(-125.696)" fill="#00d2fc"/>
    </g>
    <path id="Trazado_613297" data-name="Trazado 613297" d="M40.67,132.939h-.149a7.164,7.164,0,0,0-7.143,7.143V141.3l.706.2H41.22V133.4Z" transform="translate(0 -111.849)" fill="#ffa90f"/>
    <path id="Trazado_613298" data-name="Trazado 613298" d="M367.975,0V7.561a2.7,2.7,0,0,0,2.7,2.7h7.561Z" transform="translate(-281.515 0)" fill="#00d2fc"/>
    <path id="Trazado_613299" data-name="Trazado 613299" d="M118.409,47.945,117.78,46.4H82.044a2.7,2.7,0,0,0-2.7,2.7V68.487L80.4,69.546h44.73l2.908-1.059V56.66l-1.515-.707Z" transform="translate(-38.674 -39.038)" fill="#dbedff"/>
    <path id="Trazado_613300" data-name="Trazado 613300" d="M87.718,49.1a2.7,2.7,0,0,1,2.7-2.7H82.044a2.7,2.7,0,0,0-2.7,2.7V68.488L80.4,69.547h8.374l-1.059-1.059V49.1Z" transform="translate(-38.674 -39.039)" fill="#b5dcff"/>
    <g id="Grupo_89441" data-name="Grupo 89441" transform="translate(46.238 23.227)">
      <path id="Trazado_613301" data-name="Trazado 613301" d="M149.388,148.858H115.669a1.226,1.226,0,0,1,0-2.451h33.719a1.226,1.226,0,0,1,0,2.451Z" transform="translate(-114.443 -146.407)" fill="#8bcaff"/>
    </g>
    <g id="Grupo_89442" data-name="Grupo 89442" transform="translate(46.238 18.712)">
      <path id="Trazado_613302" data-name="Trazado 613302" d="M144.049,120.4h-28.38a1.226,1.226,0,1,1,0-2.451h28.38a1.226,1.226,0,0,1,0,2.451Z" transform="translate(-114.443 -117.947)" fill="#8bcaff"/>
    </g>
    <path id="Trazado_613303" data-name="Trazado 613303" d="M321.622,46.4V53.96a2.7,2.7,0,0,0,2.7,2.7h7.561Z" transform="translate(-242.516 -39.038)" fill="#b5dcff"/>
    <path id="Trazado_613304" data-name="Trazado 613304" d="M372.388,7.561V4.413L367.975,0V7.561a2.7,2.7,0,0,0,2.7,2.7h4.413a2.7,2.7,0,0,1-2.7-2.7Z" transform="translate(-281.515)" fill="#00c2fb"/>
    <path id="Trazado_613305" data-name="Trazado 613305" d="M326.035,53.96V50.812L321.622,46.4V53.96a2.7,2.7,0,0,0,2.7,2.7h4.413a2.7,2.7,0,0,1-2.7-2.7Z" transform="translate(-242.516 -39.038)" fill="#8bcaff"/>
    <path id="Trazado_613306" data-name="Trazado 613306" d="M104.013,185.63H33.378v49.606a2.171,2.171,0,0,0,2.171,2.171h66.294a2.171,2.171,0,0,0,2.171-2.171V185.63Z" transform="translate(0 -156.181)" fill="#ffd086"/>
    <path id="Trazado_613307" data-name="Trazado 613307" d="M43.788,235.236V185.63H33.378v49.606a2.171,2.171,0,0,0,2.171,2.171h10.41A2.171,2.171,0,0,1,43.788,235.236Z" transform="translate(0 -156.181)" fill="#ffc365"/>
    <path id="Trazado_613308" data-name="Trazado 613308" d="M283.4,321.977H257.389A1.389,1.389,0,0,0,256,323.366v20.475a1.389,1.389,0,0,0,1.389,1.389H283.4a1.389,1.389,0,0,0,1.389-1.389V323.366a1.389,1.389,0,0,0-1.389-1.389Z" transform="translate(-187.305 -270.897)" fill="#dbedff"/>
    <path id="Trazado_613309" data-name="Trazado 613309" d="M262.528,343.84V323.365a1.389,1.389,0,0,1,1.389-1.389h-6.528A1.389,1.389,0,0,0,256,323.365V343.84a1.389,1.389,0,0,0,1.389,1.389h6.528a1.389,1.389,0,0,1-1.389-1.389Z" transform="translate(-187.304 -270.897)" fill="#b5dcff"/>
    <g id="Grupo_89443" data-name="Grupo 89443" transform="translate(73.203 68.253)">
      <path id="Trazado_613310" data-name="Trazado 613310" d="M302.962,432.68H285.639a1.226,1.226,0,1,1,0-2.451h17.324a1.226,1.226,0,1,1,0,2.451Z" transform="translate(-284.413 -430.229)" fill="#8bcaff"/>
    </g>
    <g id="Grupo_89444" data-name="Grupo 89444" transform="translate(73.203 63.738)">
      <path id="Trazado_613311" data-name="Trazado 613311" d="M302.962,404.22H285.639a1.226,1.226,0,0,1,0-2.451h17.324a1.226,1.226,0,1,1,0,2.451Z" transform="translate(-284.413 -401.769)" fill="#8bcaff"/>
    </g>
    <g id="Grupo_89445" data-name="Grupo 89445" transform="translate(73.203 59.223)">
      <path id="Trazado_613312" data-name="Trazado 613312" d="M302.962,375.76H285.639a1.226,1.226,0,1,1,0-2.451h17.324a1.226,1.226,0,1,1,0,2.451Z" transform="translate(-284.413 -373.309)" fill="#8bcaff"/>
    </g>
    <g id="Grupo_89446" data-name="Grupo 89446" transform="translate(73.203 54.708)">
      <path id="Trazado_613313" data-name="Trazado 613313" d="M302.962,347.3H285.639a1.226,1.226,0,0,1,0-2.451h17.324a1.226,1.226,0,1,1,0,2.451Z" transform="translate(-284.413 -344.848)" fill="#8bcaff"/>
    </g>
  </g>
</svg>
