<svg xmlns="http://www.w3.org/2000/svg" width="83.725" height="92.178" viewBox="0 0 83.725 92.178">
  <g id="energia-renovable" transform="translate(-23.45 -0.001)">
    <g id="Grupo_81176" data-name="Grupo 81176" transform="translate(24.713 5.535)">
      <g id="Grupo_81175" data-name="Grupo 81175" transform="translate(0)">
        <path id="Trazado_603929" data-name="Trazado 603929" d="M71.012,30.7a40.553,40.553,0,0,0-28.573,69.332,5.414,5.414,0,1,0,7.6-7.716,29.725,29.725,0,0,1,20.976-50.8Z" transform="translate(-30.457 -30.704)" fill="#92dd7a"/>
      </g>
    </g>
    <g id="Grupo_81178" data-name="Grupo 81178" transform="translate(37.36 5.535)">
      <g id="Grupo_81177" data-name="Grupo 81177" transform="translate(0)">
        <path id="Trazado_603930" data-name="Trazado 603930" d="M100.623,41.835a5.5,5.5,0,0,1,7.489,7.822,29.633,29.633,0,0,1,20.419-8.138V30.7A40.416,40.416,0,0,0,100.623,41.835Z" transform="translate(-100.623 -30.704)" fill="#7ec66a"/>
      </g>
    </g>
    <g id="Grupo_81180" data-name="Grupo 81180" transform="translate(65.268 15.743)">
      <g id="Grupo_81179" data-name="Grupo 81179">
        <path id="Trazado_603931" data-name="Trazado 603931" d="M255.457,158.241A40.553,40.553,0,0,0,284.03,88.909a5.414,5.414,0,1,0-7.6,7.716,29.725,29.725,0,0,1-20.976,50.8Z" transform="translate(-255.457 -87.339)" fill="#92dd7a"/>
      </g>
    </g>
    <g id="Grupo_81183" data-name="Grupo 81183" transform="translate(65.268 67.693)">
      <g id="Grupo_81182" data-name="Grupo 81182" transform="translate(0)">
        <g id="Grupo_81181" data-name="Grupo 81181">
          <path id="Trazado_603932" data-name="Trazado 603932" d="M276.424,382.692a5.5,5.5,0,0,1-.547-7.138,29.633,29.633,0,0,1-20.419,8.138v10.815a40.415,40.415,0,0,0,27.908-11.131A5.5,5.5,0,0,1,276.424,382.692Z" transform="translate(-255.458 -375.554)" fill="#7ec66a"/>
        </g>
      </g>
    </g>
    <g id="Grupo_81188" data-name="Grupo 81188" transform="translate(59.655 1.329)">
      <g id="Grupo_81185" data-name="Grupo 81185" transform="translate(0 0.023)">
        <g id="Grupo_81184" data-name="Grupo 81184">
          <path id="Trazado_603933" data-name="Trazado 603933" d="M228.821,8.048l10.795,7.975a2.823,2.823,0,0,1,0,4.541L228.821,28.54a2.823,2.823,0,0,1-4.5-2.271V10.319A2.823,2.823,0,0,1,228.821,8.048Z" transform="translate(-224.32 -7.491)" fill="#b1ef97"/>
        </g>
      </g>
      <g id="Grupo_81187" data-name="Grupo 81187">
        <g id="Grupo_81186" data-name="Grupo 81186">
          <path id="Trazado_603934" data-name="Trazado 603934" d="M239.615,15.9,228.82,7.922a2.823,2.823,0,0,0-4.5,2.271V24.261C224.319,16.049,234.261,11.942,239.615,15.9Z" transform="translate(-224.319 -7.365)" fill="#92dd7a"/>
        </g>
      </g>
    </g>
    <g id="Grupo_81193" data-name="Grupo 81193" transform="translate(54.439 69.223)">
      <g id="Grupo_81190" data-name="Grupo 81190">
        <g id="Grupo_81189" data-name="Grupo 81189">
          <path id="Trazado_603935" data-name="Trazado 603935" d="M207.321,405.092l-10.795-7.975a2.823,2.823,0,0,1,0-4.541l10.795-7.975a2.823,2.823,0,0,1,4.5,2.271v15.95a2.823,2.823,0,0,1-4.5,2.271Z" transform="translate(-195.38 -384.043)" fill="#b1ef97"/>
        </g>
      </g>
      <g id="Grupo_81192" data-name="Grupo 81192" transform="translate(1.146 4.733)">
        <g id="Grupo_81191" data-name="Grupo 81191">
          <path id="Trazado_603936" data-name="Trazado 603936" d="M201.736,418.667l10.795,7.975a2.823,2.823,0,0,0,4.5-2.271V410.3C217.031,418.516,207.09,422.622,201.736,418.667Z" transform="translate(-201.736 -410.304)" fill="#92dd7a"/>
        </g>
      </g>
    </g>
    <g id="Grupo_81195" data-name="Grupo 81195" transform="translate(51.581 31.84)">
      <g id="Grupo_81194" data-name="Grupo 81194">
        <path id="Trazado_603937" data-name="Trazado 603937" d="M204.9,179.335l-3.688,7.768a.942.942,0,0,0,.851,1.346h2.945a1.884,1.884,0,0,1,1.246,3.3l-18.194,16.044a3.83,3.83,0,0,1-5.985-4.531l4.427-9.214a.942.942,0,0,0-.849-1.35h-4.246a1.884,1.884,0,0,1-1.7-2.7l5.389-11.216a3.768,3.768,0,0,1,3.4-2.136h14.7A1.884,1.884,0,0,1,204.9,179.335Z" transform="translate(-179.522 -176.643)" fill="#ffeb99"/>
      </g>
    </g>
    <g id="Grupo_81197" data-name="Grupo 81197" transform="translate(51.58 31.84)">
      <g id="Grupo_81196" data-name="Grupo 81196">
        <path id="Trazado_603938" data-name="Trazado 603938" d="M196.284,194.047a.942.942,0,0,0-.849-1.35h-4.246a1.884,1.884,0,0,1-1.7-2.7l5.389-11.216a3.769,3.769,0,0,1,3.4-2.136h-9.783a3.768,3.768,0,0,0-3.4,2.136L179.708,190a1.884,1.884,0,0,0,1.7,2.7h4.246a.942.942,0,0,1,.849,1.35l-4.427,9.214a3.83,3.83,0,0,0,5.985,4.531l2.812-2.48Z" transform="translate(-179.52 -176.645)" fill="#ffde55"/>
      </g>
    </g>
    <g id="Grupo_81201" data-name="Grupo 81201" transform="translate(23.45 0.001)">
      <g id="Grupo_81198" data-name="Grupo 81198" transform="translate(0 0)">
        <path id="Trazado_603939" data-name="Trazado 603939" d="M36.879,46.09A28.455,28.455,0,0,1,58.3,18.567V20.13a4.171,4.171,0,0,0,6.656,3.358l10.795-7.975a4.175,4.175,0,0,0,0-6.716L64.959.822A4.175,4.175,0,0,0,58.3,4.18v.582A41.921,41.921,0,0,0,23.452,43.3a1.352,1.352,0,0,0,1.26,1.438c.03,0,.06,0,.09,0a1.352,1.352,0,0,0,1.348-1.263A39.332,39.332,0,0,1,58.3,7.506v8.28A31.075,31.075,0,0,0,43.338,68.108a4.086,4.086,0,0,1,.793,4.749,4.062,4.062,0,0,1-6.483,1.051,39.123,39.123,0,0,1-11.5-25.179,1.352,1.352,0,1,0-2.7.179A41.824,41.824,0,0,0,35.743,75.827a6.679,6.679,0,0,0,4.735,1.964,6.942,6.942,0,0,0,1.1-.089,6.7,6.7,0,0,0,4.96-3.623,6.783,6.783,0,0,0-1.3-7.886,28.187,28.187,0,0,1-8.367-20.1ZM61.007,4.179a1.446,1.446,0,0,1,.809-1.314,1.478,1.478,0,0,1,.668-.162A1.456,1.456,0,0,1,63.353,3l10.795,7.975a1.471,1.471,0,0,1,0,2.367L63.353,21.313a1.471,1.471,0,0,1-2.345-1.183Z" transform="translate(-23.45 -0.001)"/>
      </g>
      <g id="Grupo_81199" data-name="Grupo 81199" transform="translate(29.638 14.389)">
        <path id="Trazado_603940" data-name="Trazado 603940" d="M229.587,81.794a6.765,6.765,0,0,0-10.8,1.748,6.783,6.783,0,0,0,1.3,7.886,28.188,28.188,0,0,1,8.366,20.1,28.475,28.475,0,0,1-21.424,27.524V137.49a4.175,4.175,0,0,0-6.656-3.358l-10.795,7.975a4.175,4.175,0,0,0,0,6.716L200.37,156.8a4.175,4.175,0,0,0,6.656-3.358v-.581a41.908,41.908,0,0,0,22.561-71.066Zm-25.265,71.647a1.471,1.471,0,0,1-2.345,1.183l-10.795-7.975a1.471,1.471,0,0,1,0-2.367l10.795-7.975a1.471,1.471,0,0,1,2.345,1.183Zm2.7-3.327v-8.28a31.076,31.076,0,0,0,14.966-52.323,4.086,4.086,0,0,1-.793-4.749,4.062,4.062,0,0,1,6.483-1.051,38.93,38.93,0,0,1,11.583,27.818A39.406,39.406,0,0,1,207.026,150.114Z" transform="translate(-187.881 -79.829)"/>
      </g>
      <g id="Grupo_81200" data-name="Grupo 81200" transform="translate(26.779 30.487)">
        <path id="Trazado_603941" data-name="Trazado 603941" d="M174.991,201.529a5.181,5.181,0,0,0,7.813,1.128l10.218-9.01a1.352,1.352,0,0,0-1.788-2.028l-10.218,9.01a2.476,2.476,0,0,1-1.639.619,2.478,2.478,0,0,1-2.234-3.551l4.427-9.214A2.294,2.294,0,0,0,179.5,185.2h-4.246a.533.533,0,0,1-.48-.763l5.389-11.216a2.429,2.429,0,0,1,2.178-1.37h14.7a.532.532,0,0,1,.481.761l-3.688,7.768a2.294,2.294,0,0,0,2.072,3.278h2.945a.532.532,0,0,1,.352.931l-4.056,3.577a1.352,1.352,0,0,0,1.788,2.028L201,186.612a3.236,3.236,0,0,0-2.14-5.663h-2.3l3.41-7.182a3.236,3.236,0,0,0-2.923-4.624h-14.7a5.147,5.147,0,0,0-4.615,2.9l-5.39,11.216a3.236,3.236,0,0,0,2.917,4.638h3.594l-4.145,8.627a5.155,5.155,0,0,0,.284,5Z" transform="translate(-172.019 -169.143)"/>
      </g>
    </g>
  </g>
</svg>
